<svg width="45" height="45" fill="none" xmlns="http://www.w3.org/2000/svg"><circle cx="22.5" cy="22.5" r="22.5" fill="#121936"/><path fill-rule="evenodd" clip-rule="evenodd" d="M30.14 27.466L25.808 23.5l4.33-3.966-.59-.631-6.299 5.769-6.299-5.77-.59.632 4.33 3.966-4.33 3.966.59.631 4.38-4.011 1.919 1.758 1.92-1.758 4.379 4.011.59-.63zM15.575 17.25c-.81 0-1.465.699-1.465 1.558v9.384c0 .86.65 1.558 1.465 1.558h15.348c.809 0 1.465-.699 1.465-1.558v-9.384c0-.86-.65-1.558-1.465-1.558H15.576z" fill="#FFD74B"/></svg>