<svg width="90" height="90" fill="none" xmlns="http://www.w3.org/2000/svg"><circle cx="45" cy="45" r="45" fill="#121936"/><path fill-rule="evenodd" clip-rule="evenodd" d="M60.279 54.933L51.618 47l8.66-7.933-1.18-1.262L46.5 49.344 33.902 37.805l-1.18 1.262L41.381 47l-8.66 7.933 1.18 1.262 8.76-8.023 3.838 3.515 3.838-3.515 8.76 8.023 1.18-1.262zM31.152 34.5c-1.618 0-2.93 1.398-2.93 3.116v18.768c0 1.721 1.301 3.116 2.93 3.116h30.696c1.618 0 2.93-1.398 2.93-3.116V37.616c0-1.721-1.301-3.116-2.93-3.116H31.152z" fill="#FFD74B"/></svg>