<svg width="76" height="76" fill="none" xmlns="http://www.w3.org/2000/svg"><g filter="url(#filter0_d)"><circle cx="38" cy="34" r="34" fill="#121936"/><path fill-rule="evenodd" clip-rule="evenodd" d="M38 22.797c-4.226 0-8.462.714-9.999 2.138-1.275 1.18-1.7 3.267-1.843 4.588 0 0-.02.131-.02.187 0 .518.445.934.988.934.065 0 2.442-.182 3.875-.294a.734.734 0 00.104-.02c.534-.013.964-.424.964-.933l.005-1.839c0-.57.49-1.027 1.092-1.027h9.668c.603 0 1.092.458 1.092 1.027l.005 1.84c0 .508.43.919.964.933.034.01.069.014.104.019 1.433.111 3.81.294 3.875.294.543 0 .988-.416.988-.934 0-.056-.02-.187-.02-.187-.143-1.32-.568-3.407-1.843-4.588-1.537-1.424-5.773-2.138-9.999-2.138zm0 12.136c-1.092 0-1.977.836-1.977 1.868s.885 1.867 1.977 1.867 1.977-.836 1.977-1.867-.885-1.867-1.977-1.867zm-1.483-4.2v-1.168c0-.644-.553-1.167-1.235-1.167s-1.236.523-1.236 1.167v1.167l-6.668 6.727a2.273 2.273 0 00-.746 1.671v1.872c0 1.031.885 1.867 1.977 1.867h.495v1.167c0 .644.553 1.167 1.235 1.167s1.236-.523 1.236-1.167v-1.167h12.85v1.167c0 .644.554 1.167 1.236 1.167.682 0 1.236-.523 1.236-1.167v-1.167h.494c1.092 0 1.977-.836 1.977-1.867V39.13c0-.654-.287-1.246-.746-1.671l-6.668-6.727v-1.167c0-.644-.554-1.167-1.236-1.167-.682 0-1.235.523-1.235 1.167v1.167h-2.966zM38 33.065c2.185 0 3.954 1.671 3.954 3.735s-1.77 3.734-3.954 3.734-3.954-1.671-3.954-3.734c0-2.064 1.77-3.735 3.954-3.735z" fill="#FFD74B"/></g><defs><filter id="filter0_d" x="0" y="0" width="76" height="76" filterUnits="userSpaceOnUse" color-interpolation-filters="sRGB"><feFlood flood-opacity="0" result="BackgroundImageFix"/><feColorMatrix in="SourceAlpha" values="0 0 0 0 0 0 0 0 0 0 0 0 0 0 0 0 0 0 127 0"/><feOffset dy="4"/><feGaussianBlur stdDeviation="2"/><feColorMatrix values="0 0 0 0 0 0 0 0 0 0 0 0 0 0 0 0 0 0 0.25 0"/><feBlend in2="BackgroundImageFix" result="effect1_dropShadow"/><feBlend in="SourceGraphic" in2="effect1_dropShadow" result="shape"/></filter></defs></svg>