<svg width="45" height="45" fill="none" xmlns="http://www.w3.org/2000/svg"><circle cx="22.5" cy="22.5" r="22.5" fill="#121936"/><path fill-rule="evenodd" clip-rule="evenodd" d="M22.5 15.086c-2.796 0-5.6.473-6.617 1.415-.844.782-1.125 2.162-1.22 3.037 0 0-.013.086-.013.123 0 .343.294.618.654.618.043 0 1.616-.12 2.565-.195.022-.003.045-.006.068-.012.353-.01.638-.281.638-.618l.003-1.217c0-.377.324-.68.723-.68H25.7c.399 0 .723.303.723.68l.003 1.217c0 .337.285.609.638.618.022.006.045.01.069.012.948.074 2.521.195 2.564.195.36 0 .654-.275.654-.618 0-.037-.013-.124-.013-.124-.095-.874-.376-2.254-1.22-3.036-1.017-.942-3.82-1.415-6.617-1.415zm0 8.032c-.723 0-1.308.553-1.308 1.235 0 .683.585 1.236 1.308 1.236.723 0 1.308-.553 1.308-1.236 0-.682-.585-1.235-1.308-1.235zm-.981-2.78v-.773c0-.426-.367-.772-.818-.772s-.818.346-.818.772v.772l-4.412 4.452a1.504 1.504 0 00-.494 1.106v1.238c0 .683.586 1.236 1.309 1.236h.327v.772c0 .427.366.773.817.773s.818-.346.818-.773v-.772h8.504v.772c0 .427.366.773.818.773.451 0 .817-.346.817-.773v-.772h.327c.723 0 1.309-.553 1.309-1.236v-1.238c0-.433-.19-.825-.494-1.106l-4.412-4.452v-.772c0-.426-.367-.772-.818-.772s-.818.346-.818.772v.772H21.52zm.981 1.544c1.446 0 2.617 1.106 2.617 2.471 0 1.366-1.171 2.472-2.617 2.472s-2.617-1.106-2.617-2.472c0-1.365 1.171-2.47 2.617-2.47z" fill="#FFD74B"/></svg>