<svg width="68" height="68" fill="none" xmlns="http://www.w3.org/2000/svg"><circle cx="34" cy="34" r="34" fill="#121936"/><path fill-rule="evenodd" clip-rule="evenodd" d="M45.544 41.505L39 35.51l6.544-5.994-.892-.953-9.519 8.718-9.518-8.718-.892.954 6.544 5.993-6.544 5.994.892.953 6.618-6.062 2.9 2.657 2.9-2.656 6.619 6.061.892-.953zM23.537 26.067c-1.222 0-2.213 1.056-2.213 2.354V42.6c0 1.3.982 2.354 2.213 2.354H46.73c1.222 0 2.213-1.055 2.213-2.354V28.42c0-1.3-.983-2.354-2.213-2.354H23.537z" fill="#FFD74B"/></svg>