<svg width="90" height="90" fill="none" xmlns="http://www.w3.org/2000/svg"><circle cx="45" cy="45" r="45" fill="#121936"/><path fill-rule="evenodd" clip-rule="evenodd" d="M45 30.172c-5.593 0-11.2.946-13.234 2.83-1.687 1.563-2.25 4.325-2.44 6.073 0 0-.026.173-.026.247 0 .686.589 1.236 1.308 1.236.086 0 3.232-.241 5.129-.39.046-.006.092-.012.137-.024.707-.019 1.276-.562 1.276-1.236l.006-2.434c0-.754.648-1.36 1.446-1.36h12.795c.799 0 1.446.606 1.446 1.36l.007 2.434c0 .674.57 1.217 1.275 1.236.046.012.092.018.138.025 1.897.148 5.044.389 5.128.389.72 0 1.309-.55 1.309-1.236 0-.074-.026-.247-.026-.247-.19-1.748-.752-4.51-2.44-6.073-2.035-1.884-7.641-2.83-13.234-2.83zm0 16.063c-1.446 0-2.617 1.106-2.617 2.472 0 1.365 1.171 2.47 2.617 2.47s2.616-1.105 2.616-2.47-1.17-2.471-2.616-2.471zm-1.963-5.56v-1.544c0-.853-.732-1.545-1.635-1.545s-1.635.692-1.635 1.545v1.544l-8.825 8.903a3.009 3.009 0 00-.988 2.212v2.477c0 1.365 1.171 2.471 2.617 2.471h.654v1.545c0 .852.733 1.544 1.635 1.544s1.636-.692 1.636-1.544v-1.545h17.008v1.545c0 .852.733 1.544 1.635 1.544.903 0 1.636-.692 1.636-1.544v-1.545h.654c1.445 0 2.616-1.105 2.616-2.47V51.79c0-.866-.38-1.65-.987-2.212l-8.825-8.903v-1.544c0-.853-.733-1.545-1.635-1.545s-1.636.692-1.636 1.545v1.544h-3.925zM45 43.765c2.891 0 5.233 2.211 5.233 4.942 0 2.73-2.342 4.942-5.233 4.942s-5.233-2.212-5.233-4.942c0-2.731 2.341-4.943 5.233-4.943z" fill="#FFD74B"/></svg>