<svg width="19" height="19" fill="none" xmlns="http://www.w3.org/2000/svg"><path d="M9.774 8.224c0 .189.154.337.342.337a.7.7 0 01.703.696.34.34 0 00.341.337.34.34 0 00.342-.337 1.38 1.38 0 00-1.386-1.37.34.34 0 00-.342.337zm5.558 1.37a.338.338 0 00.341-.337c0-3.031-2.492-5.495-5.557-5.495a.34.34 0 00-.342.338.34.34 0 00.342.337c2.69 0 4.875 2.164 4.875 4.82a.34.34 0 00.341.337z" fill="#161C35"/><path d="M12.905 9.257a.34.34 0 00.341.337.34.34 0 00.341-.337c0-1.894-1.556-3.433-3.471-3.433a.34.34 0 00-.342.338c0 .189.154.337.342.337 1.54 0 2.789 1.239 2.789 2.758zM10.115 1.7a.34.34 0 00-.34.337.34.34 0 00.34.338c3.841 0 6.965 3.088 6.965 6.882 0 .185.15.337.341.337a.34.34 0 00.342-.337c0-4.168-3.431-7.557-7.647-7.557zm3.336 11.114l-.447.24c-.755.408-1.342 1.527-2.273.684L8.301 11.3 6.2 9.257c-1.055-1.334.126-1.65.54-2.4l.242-.439c.273-.5.372-1.06.29-1.62a2.557 2.557 0 00-.744-1.475 2.636 2.636 0 00-1.868-.762c-.706 0-1.372.27-1.87.762l-.174.176c-.922.911-1.028 2.48-.3 4.424C3 9.78 4.383 11.791 6.2 13.587c2.769 2.737 5.851 4.313 8.063 4.313.874 0 1.615-.246 2.14-.766l.178-.176a2.595 2.595 0 00.775-1.85 2.636 2.636 0 00-.775-1.845 2.683 2.683 0 00-3.13-.45z" fill="#161C35"/></svg>