<svg width="40" height="40" fill="none" xmlns="http://www.w3.org/2000/svg"><circle cx="20" cy="20" r="20" fill="#FFBD30"/><path d="M12.017 15.325l6.75 4.23c.226.143.52.21.815.21.295 0 .589-.067.815-.21l6.75-4.23c.44-.276.856-1.35.049-1.35H11.969c-.807 0-.392 1.074.048 1.35zm15.335 2.313l-6.955 4.229c-.306.187-.52.209-.815.209-.295 0-.51-.022-.815-.21-.306-.186-6.42-3.925-6.92-4.229-.35-.214-.347.037-.347.23v7.658c0 .441.51 1.05.9 1.05h14.4c.39 0 .9-.609.9-1.05v-7.657c0-.193.004-.444-.348-.23z" fill="#161C35"/></svg>