<svg width="31" height="30" fill="none" xmlns="http://www.w3.org/2000/svg"><ellipse cx="15.319" cy="15.371" rx="15.319" ry="14.581" fill="#EDEFF6"/><g clip-path="url(#clip0)"><path fill-rule="evenodd" clip-rule="evenodd" d="M15.32 14.277l.684-1.37c.17-.34.465-.827.882-1.221.41-.389.903-.653 1.497-.653 1.284 0 2.298 1.016 2.298 2.236 0 .928-.424 1.582-1.43 2.58-.259.256-.553.533-.879.838-.848.796-1.904 1.787-3.053 3.112-1.149-1.325-2.204-2.316-3.053-3.112-.325-.305-.62-.582-.878-.837-1.006-.999-1.43-1.653-1.43-2.58 0-1.221 1.014-2.237 2.297-2.237.595 0 1.086.264 1.497.653.417.394.712.882.882 1.221l.685 1.37zm.3 6.35a.392.392 0 01-.601 0c-1.226-1.457-2.336-2.498-3.25-3.355-1.582-1.485-2.577-2.418-2.577-4.003 0-1.658 1.37-3.001 3.063-3.001 1.226 0 2.083.804 2.608 1.537.199.28.35.548.456.76.133-.265.285-.519.457-.76.524-.734 1.381-1.537 2.607-1.537 1.693 0 3.064 1.343 3.064 3.001 0 1.585-.996 2.518-2.578 4.003-.913.857-2.023 1.899-3.25 3.354z" fill="#192144" opacity=".5"/></g><defs><clipPath id="clip0"><path fill="#fff" transform="translate(9.192 9.539)" d="M0 0h12.255v11.665H0z"/></clipPath></defs></svg>