<svg width="68" height="68" fill="none" xmlns="http://www.w3.org/2000/svg"><circle cx="34" cy="34" r="34" fill="#121936"/><g clip-path="url(#clip0)"><path d="M34 18.133c-6.57 0-11.9 5.33-11.9 11.9 0 7.644 5.747 10.986 7.018 12.51 3.051 3.662 3.224 7.324 4.882 7.324 1.658 0 1.83-3.662 4.882-7.323 1.27-1.525 7.018-4.867 7.018-12.51 0-6.572-5.33-11.9-11.9-11.9zm0 19.834a7.934 7.934 0 110-15.868 7.934 7.934 0 010 15.868zm0-11.9a3.968 3.968 0 00-3.967 3.966A3.968 3.968 0 0034 34a3.968 3.968 0 003.967-3.967A3.968 3.968 0 0034 26.067z" fill="#FFD74B"/><circle cx="34" cy="30.033" fill="#161C35" r="1.322"/></g><defs><clipPath id="clip0"><path fill="#fff" transform="translate(18.133 18.133)" d="M0 0h31.733v31.733H0z"/></clipPath></defs></svg>