<svg width="90" height="90" fill="none" xmlns="http://www.w3.org/2000/svg"><circle cx="45" cy="45" r="45" fill="#121936"/><path d="M45 24c-8.697 0-15.75 7.053-15.75 15.75 0 10.117 7.607 14.54 9.288 16.558C42.578 61.154 42.806 66 45 66c2.195 0 2.423-4.846 6.462-9.692 1.681-2.018 9.288-6.441 9.288-16.558C60.75 31.053 53.697 24 45 24zm0 26.25c-5.799 0-10.5-4.701-10.5-10.5s4.701-10.5 10.5-10.5 10.5 4.701 10.5 10.5-4.701 10.5-10.5 10.5zm0-15.75a5.252 5.252 0 00-5.25 5.25A5.252 5.252 0 0045 45a5.252 5.252 0 005.25-5.25A5.252 5.252 0 0045 34.5z" fill="#FFD74B"/><circle cx="45" cy="39.75" fill="#161C35" r="1.75"/></svg>