<svg width="68" height="68" fill="none" xmlns="http://www.w3.org/2000/svg"><circle cx="34" cy="34" r="34" fill="#E2E5F2"/><path d="M43.376 43.242v-3.349c0-.937-.134-1.875-.67-2.812-.536-.938-1.205-1.742-2.143-2.277-.938-.67-2.947-.804-3.884-.804l-2.143 2.277.803 1.741v4.018L34 43.51l-1.34-1.474v-4.018l.938-1.741L31.321 34c-1.071 0-3.08.134-4.018.804-.938.535-1.473 1.339-2.009 2.277-.536.937-.67 1.74-.67 2.812v3.349s3.483 1.473 9.376 1.473c5.893 0 9.376-1.473 9.376-1.473zM34 23.419c-2.545 0-4.018 2.41-3.616 5.09.401 2.678 1.74 4.554 3.616 4.554 1.875 0 3.215-1.876 3.616-4.554.402-2.813-1.071-5.09-3.616-5.09z" fill="#132576"/></svg>