<svg width="45" height="45" fill="none" xmlns="http://www.w3.org/2000/svg"><circle cx="22.5" cy="22.5" r="22.5" fill="#121936"/><path fill-rule="evenodd" clip-rule="evenodd" d="M30.1393 27.4663L25.8089 23.5l4.3304-3.9663-.5905-.6311-6.2988 5.7693-6.2988-5.7693-.5905.6311L20.6911 23.5l-4.3304 3.9663.5905.6311 4.3796-4.0115 1.9192 1.7579 1.9191-1.7579 4.3797 4.0115.5905-.6311zM15.5759 17.25c-.809 0-1.4648.6988-1.4648 1.5579v9.3842c0 .8604.6505 1.5579 1.4648 1.5579H30.924c.809 0 1.4649-.6988 1.4649-1.5579v-9.3842c0-.8604-.6506-1.5579-1.4649-1.5579H15.5759z" fill="#FFD74B"/></svg>