<svg width="90" height="90" fill="none" xmlns="http://www.w3.org/2000/svg"><circle cx="45" cy="45" r="45" fill="#121936"/><path fill-rule="evenodd" clip-rule="evenodd" d="M60.2786 54.9327L51.6177 47l8.6609-7.9327-1.181-1.262-12.5977 11.5385-12.5976-11.5385-1.181 1.262L41.3822 47l-8.6609 7.9327 1.181 1.262 8.7593-8.0228 3.8383 3.5156 3.8384-3.5156 8.7593 8.0228 1.181-1.262zM31.1519 34.5c-1.6181 0-2.9297 1.3977-2.9297 3.1157v18.7686c0 1.7207 1.301 3.1157 2.9297 3.1157H61.848c1.6181 0 2.9297-1.3977 2.9297-3.1157V37.6157c0-1.7207-1.301-3.1157-2.9297-3.1157H31.1519z" fill="#FFD74B"/></svg>