<svg width="45" height="45" fill="none" xmlns="http://www.w3.org/2000/svg"><circle cx="22.5" cy="22.5" r="22.5" fill="#121936"/><path fill-rule="evenodd" clip-rule="evenodd" d="M22.5 15.0862c-2.7964 0-5.5996.4726-6.6167 1.4147-.8439.7816-1.1252 2.1624-1.22 3.0366 0 0-.0131.0864-.0131.1236 0 .3428.2943.6178.6541.6178.0425 0 1.6158-.1205 2.5643-.1946.0228-.0032.0458-.0062.0686-.0124.3533-.0092.6379-.2811.6379-.6178l.0032-1.2171c0-.3769.3239-.6796.723-.6796h6.3974c.3991 0 .7231.3027.7231.6796l.0032 1.2171c0 .3367.2846.6086.6378.6178.0227.0062.0457.0092.0688.0124.9486.074 2.5218.1946 2.5641.1946.3597 0 .6542-.275.6542-.6178 0-.0372-.013-.1236-.013-.1236-.0949-.8742-.3759-2.2549-1.2198-3.0366-1.0175-.9421-3.8206-1.4147-6.6171-1.4147zm0 8.0315c-.7228 0-1.3083.5529-1.3083 1.2356 0 .6827.5855 1.2356 1.3083 1.2356.7229 0 1.3083-.5529 1.3083-1.2356 0-.6827-.5854-1.2356-1.3083-1.2356zm-.9812-2.7802v-.7722c0-.4263-.3664-.7723-.8177-.7723s-.8176.3461-.8176.7723v.7722l-4.4125 4.4514c-.304.2811-.4938.6733-.4938 1.1059v1.2387c0 .6827.5855 1.2356 1.3083 1.2356h.3271v.7723c0 .4263.3664.7722.8177.7722s.8177-.3459.8177-.7722v-.7723h8.504v.7723c0 .4263.3663.7722.8178.7722.4513 0 .8176-.3459.8176-.7722v-.7723h.3271c.7228 0 1.3083-.5529 1.3083-1.2356v-1.2387c0-.4326-.1898-.8248-.4939-1.1059l-4.4122-4.4514v-.7722c0-.4263-.3665-.7723-.8178-.7723s-.8176.3461-.8176.7723v.7722h-1.9625zm.9812 1.5446c1.4457 0 2.6167 1.1059 2.6167 2.4712 0 1.3654-1.171 2.4714-2.6167 2.4714-1.4457 0-2.6166-1.106-2.6166-2.4714 0-1.3653 1.1709-2.4712 2.6166-2.4712z" fill="#FFD74B"/></svg>