<svg width="76" height="76" fill="none" xmlns="http://www.w3.org/2000/svg"><g filter="url(#filter0_d)"><circle cx="38" cy="34" r="34" fill="#121936"/><path fill-rule="evenodd" clip-rule="evenodd" d="M38 22.7969c-4.2258 0-8.4617.7142-9.9986 2.1379-1.2752 1.181-1.7003 3.2675-1.8436 4.5886 0 0-.0197.1306-.0197.1867 0 .5181.4447.9335.9884.9335.0643 0 2.4416-.182 3.8749-.294.0345-.0048.0692-.0094.1037-.0187.5338-.0139.9639-.4248.9639-.9335l.0048-1.8392c0-.5695.4895-1.027 1.0925-1.027h9.6673c.6031 0 1.0927.4574 1.0927 1.027l.0048 1.8392c0 .5087.43.9196.9638.9335.0343.0094.069.0139.1039.0187 1.4334.1119 3.8107.294 3.8747.294.5435 0 .9886-.4154.9886-.9335 0-.0561-.0198-.1867-.0198-.1867-.1434-1.3211-.568-3.4075-1.8432-4.5886-1.5375-1.4237-5.7734-2.1379-9.9991-2.1379zm0 12.1366c-1.0923 0-1.977.8355-1.977 1.8671s.8847 1.8671 1.977 1.8671 1.9769-.8355 1.9769-1.8671-.8846-1.8671-1.9769-1.8671zm-1.4827-4.2012v-1.167c0-.6441-.5537-1.1669-1.2356-1.1669-.682 0-1.2356.5229-1.2356 1.1669v1.167l-6.6677 6.7265c-.4595.4249-.7462 1.0175-.7462 1.6712v1.8718c0 1.0316.8847 1.8671 1.977 1.8671h.4943v1.1671c0 .6441.5536 1.1668 1.2356 1.1668s1.2356-.5227 1.2356-1.1668v-1.1671h12.8506v1.1671c0 .6441.5534 1.1668 1.2357 1.1668.6819 0 1.2355-.5227 1.2355-1.1668v-1.1671h.4942c1.0923 0 1.977-.8355 1.977-1.8671V39.13c0-.6538-.2867-1.2464-.7462-1.6712l-6.6675-6.7265v-1.167c0-.6441-.5537-1.1669-1.2356-1.1669-.682 0-1.2356.5229-1.2356 1.1669v1.167h-2.9655zM38 33.0663c2.1846 0 3.954 1.6711 3.954 3.7343S40.1846 40.5351 38 40.5351s-3.954-1.6712-3.954-3.7345c0-2.0632 1.7694-3.7343 3.954-3.7343z" fill="#FFD74B"/></g><defs><filter id="filter0_d" x="0" y="0" width="76" height="76" filterUnits="userSpaceOnUse" color-interpolation-filters="sRGB"><feFlood flood-opacity="0" result="BackgroundImageFix"/><feColorMatrix in="SourceAlpha" values="0 0 0 0 0 0 0 0 0 0 0 0 0 0 0 0 0 0 127 0"/><feOffset dy="4"/><feGaussianBlur stdDeviation="2"/><feColorMatrix values="0 0 0 0 0 0 0 0 0 0 0 0 0 0 0 0 0 0 0.25 0"/><feBlend in2="BackgroundImageFix" result="effect1_dropShadow"/><feBlend in="SourceGraphic" in2="effect1_dropShadow" result="shape"/></filter></defs></svg>