<svg width="68" height="68" fill="none" xmlns="http://www.w3.org/2000/svg"><circle cx="34" cy="34" r="34" fill="#121936"/><path fill-rule="evenodd" clip-rule="evenodd" d="M45.5439 41.5047l-6.5438-5.9936 6.5438-5.9936-.8923-.9535-9.5182 8.7179-9.5182-8.7179-.8924.9535 6.5438 5.9936-6.5438 5.9936.8924.9535 6.6181-6.0617 2.9001 2.6563 2.9-2.6563 6.6182 6.0617.8923-.9535zM23.537 26.0667c-1.2225 0-2.2135 1.056-2.2135 2.354v14.1807c0 1.3002.983 2.3541 2.2135 2.3541h23.1927c1.2225 0 2.2135-1.056 2.2135-2.3541V28.4207c0-1.3001-.983-2.354-2.2135-2.354H23.537z" fill="#FFD74B"/></svg>