<svg width="90" height="90" fill="none" xmlns="http://www.w3.org/2000/svg"><circle cx="45" cy="45" r="45" fill="#121936"/><path fill-rule="evenodd" clip-rule="evenodd" d="M44.9999 30.1724c-5.5929 0-11.1992.9453-13.2335 2.8295-1.6877 1.5632-2.2503 4.3247-2.44 6.0732 0 0-.0261.1728-.0261.2471 0 .6857.5886 1.2356 1.3082 1.2356.0851 0 3.2315-.241 5.1285-.3892.0457-.0063.0917-.0124.1373-.0247.7066-.0184 1.2758-.5622 1.2758-1.2356l.0063-2.4342c0-.7538.6479-1.3593 1.446-1.3593h12.7949c.7983 0 1.4462.6055 1.4462 1.3593l.0064 2.4342c0 .6734.5692 1.2172 1.2756 1.2356.0454.0124.0914.0184.1376.0247 1.8971.1481 5.0435.3892 5.1282.3892.7194 0 1.3084-.5499 1.3084-1.2356 0-.0743-.0261-.2471-.0261-.2471-.1898-1.7485-.7518-4.5099-2.4396-6.0732-2.0349-1.8842-7.6412-2.8295-13.2341-2.8295zm0 16.0631c-1.4457 0-2.6166 1.1058-2.6166 2.4712 0 1.3654 1.1709 2.4711 2.6166 2.4711s2.6166-1.1057 2.6166-2.4711-1.1709-2.4712-2.6166-2.4712zm-1.9624-5.5604v-1.5445c0-.8525-.7328-1.5445-1.6354-1.5445s-1.6353.6921-1.6353 1.5445v1.5445l-8.8249 8.9028c-.6081.5623-.9876 1.3466-.9876 2.2118v2.4774c0 1.3654 1.171 2.4712 2.6166 2.4712h.6542v1.5446c0 .8525.7328 1.5444 1.6354 1.5444s1.6353-.6919 1.6353-1.5444v-1.5446H53.504v1.5446c0 .8525.7325 1.5444 1.6354 1.5444.9026 0 1.6352-.6919 1.6352-1.5444v-1.5446h.6542c1.4457 0 2.6166-1.1058 2.6166-2.4712v-2.4774c0-.8652-.3795-1.6496-.9876-2.2118l-8.8246-8.9028v-1.5445c0-.8525-.7329-1.5445-1.6355-1.5445s-1.6352.6921-1.6352 1.5445v1.5445h-3.925zm1.9624 3.0892c2.8914 0 5.2333 2.2117 5.2333 4.9424 0 2.7308-2.3419 4.9427-5.2333 4.9427s-5.2332-2.2119-5.2332-4.9427c0-2.7307 2.3418-4.9424 5.2332-4.9424z" fill="#FFD74B"/></svg>