<svg width="31" height="31" viewBox="0 0 31 31" fill="none" xmlns="http://www.w3.org/2000/svg">
<circle cx="15.3192" cy="15.6808" r="15.3192" fill="#F9EAEA"/>
<g clip-path="url(#clip0)">
<path d="M12.2554 10.3191C13.9481 10.3191 15.3192 11.6633 15.3192 13.3216C15.3192 11.6633 16.6903 10.3191 18.383 10.3191C20.0758 10.3191 21.4469 11.6633 21.4469 13.3216C21.4469 15.821 18.9697 16.7026 15.6194 20.681C15.5826 20.7247 15.5366 20.7598 15.4847 20.7839C15.4329 20.808 15.3764 20.8204 15.3192 20.8204C15.262 20.8204 15.2055 20.808 15.1537 20.7839C15.1018 20.7598 15.0558 20.7247 15.0189 20.681C11.6686 16.7026 9.19153 15.821 9.19153 13.3216C9.19153 11.6633 10.5626 10.3191 12.2554 10.3191Z" fill="#F02323"/>
</g>
<defs>
<clipPath id="clip0">
<rect width="12.2553" height="12.2553" fill="white" transform="translate(9.19153 9.55316)"/>
</clipPath>
</defs>
</svg>
