<svg width="31" height="30" viewBox="0 0 31 30" fill="none" xmlns="http://www.w3.org/2000/svg">
<ellipse cx="15.3192" cy="15.3709" rx="15.3192" ry="14.5809" fill="#E2E5F2"/>
<g clip-path="url(#clip0)">
<g opacity="0.5">
<path fill-rule="evenodd" clip-rule="evenodd" d="M15.3192 14.2769L16.004 12.9071C16.174 12.5678 16.4689 12.0801 16.8863 11.6857C17.2969 11.2975 17.7886 11.0333 18.383 11.0333C19.6668 11.0333 20.6809 12.0487 20.6809 13.2692C20.6809 14.1965 20.2566 14.8512 19.2501 15.8498C18.992 16.1055 18.6978 16.3819 18.3723 16.6867C17.5236 17.4831 16.4681 18.4739 15.3192 19.7986C14.1703 18.4739 13.1148 17.4831 12.2661 16.6867C11.9406 16.3819 11.6457 16.1047 11.3883 15.8498C10.3818 14.8512 9.95749 14.1965 9.95749 13.2692C9.95749 12.0487 10.9716 11.0333 12.2554 11.0333C12.8497 11.0333 13.3415 11.2975 13.752 11.6857C14.1695 12.0801 14.4644 12.5678 14.6344 12.9071L15.3192 14.2769ZM15.6194 20.6264C15.5826 20.6701 15.5366 20.7052 15.4847 20.7293C15.4329 20.7533 15.3764 20.7658 15.3192 20.7658C15.262 20.7658 15.2055 20.7533 15.1537 20.7293C15.1018 20.7052 15.0558 20.6701 15.0189 20.6264C13.7926 19.17 12.6828 18.1286 11.769 17.2717C10.1873 15.787 9.19153 14.8535 9.19153 13.2692C9.19153 11.6114 10.5626 10.2676 12.2554 10.2676C13.4809 10.2676 14.338 11.0716 14.8627 11.8052C15.0618 12.0847 15.2135 12.3534 15.3192 12.5648C15.4517 12.3003 15.6043 12.0463 15.7757 11.8052C16.3004 11.0708 17.1575 10.2676 18.383 10.2676C20.0758 10.2676 21.4469 11.6114 21.4469 13.2692C21.4469 14.8535 20.4511 15.787 18.8694 17.2717C17.9556 18.1293 16.8457 19.1707 15.6194 20.6256V20.6264Z" fill="#192144"/>
</g>
</g>
<defs>
<clipPath id="clip0">
<rect width="12.2553" height="11.6647" fill="white" transform="translate(9.19153 9.53857)"/>
</clipPath>
</defs>
</svg>
