<svg width="45" height="45" fill="none" xmlns="http://www.w3.org/2000/svg"><circle cx="22.5" cy="22.5" r="22.5" fill="#121936"/><path d="M22.5 12c-4.3483 0-7.875 3.5267-7.875 7.875 0 5.0584 3.8035 7.2699 4.6442 8.2788C21.2885 30.5769 21.4026 33 22.5 33s1.2115-2.4231 3.2308-4.8462c.8407-1.0089 4.6442-3.2204 4.6442-8.2788 0-4.3483-3.5267-7.875-7.875-7.875zm0 13.125c-2.8993 0-5.25-2.3507-5.25-5.25s2.3507-5.25 5.25-5.25 5.25 2.3507 5.25 5.25-2.3507 5.25-5.25 5.25zm0-7.875c-1.449 0-2.625 1.176-2.625 2.625S21.051 22.5 22.5 22.5s2.625-1.176 2.625-2.625-1.176-2.625-2.625-2.625z" fill="#FFD74B"/><circle cx="22.5" cy="19.875" fill="#161C35" r=".875"/></svg>