<svg width="90" height="90" viewBox="0 0 90 90" fill="none" xmlns="http://www.w3.org/2000/svg">
<circle cx="45" cy="45" r="45" fill="#121936"/>
<path d="M45 24C36.3034 24 29.25 31.0534 29.25 39.75C29.25 49.8667 36.8569 54.2898 38.5385 56.3077C42.5769 61.1538 42.8051 66 45 66C47.1949 66 47.4231 61.1538 51.4615 56.3077C53.1431 54.2898 60.75 49.8667 60.75 39.75C60.75 31.0534 53.6966 24 45 24ZM45 50.25C39.2014 50.25 34.5 45.5486 34.5 39.75C34.5 33.9514 39.2014 29.25 45 29.25C50.7986 29.25 55.5 33.9514 55.5 39.75C55.5 45.5486 50.7986 50.25 45 50.25ZM45 34.5C42.102 34.5 39.75 36.852 39.75 39.75C39.75 42.648 42.102 45 45 45C47.898 45 50.25 42.648 50.25 39.75C50.25 36.852 47.898 34.5 45 34.5Z" fill="#FFD74B"/>
<ellipse cx="45" cy="39.75" rx="1.75" ry="1.75" fill="#161C35"/>
</svg>
