<svg width="68" height="68" viewBox="0 0 68 68" fill="none" xmlns="http://www.w3.org/2000/svg">
<circle cx="34" cy="34" r="34" fill="#121936"/>
<g clip-path="url(#clip0)">
<path d="M34 18.1333C27.4292 18.1333 22.1 23.4625 22.1 30.0333C22.1 37.6771 27.8474 41.019 29.1179 42.5436C32.1692 46.2051 32.3416 49.8666 34 49.8666C35.6583 49.8666 35.8307 46.2051 38.882 42.5436C40.1525 41.019 45.9 37.6771 45.9 30.0333C45.9 23.4625 40.5708 18.1333 34 18.1333ZM34 37.9666C29.6188 37.9666 26.0666 34.4145 26.0666 30.0333C26.0666 25.6521 29.6188 22.1 34 22.1C38.3812 22.1 41.9333 25.6521 41.9333 30.0333C41.9333 34.4145 38.3812 37.9666 34 37.9666ZM34 26.0666C31.8104 26.0666 30.0333 27.8437 30.0333 30.0333C30.0333 32.2229 31.8104 34 34 34C36.1896 34 37.9666 32.2229 37.9666 30.0333C37.9666 27.8437 36.1896 26.0666 34 26.0666Z" fill="#FFD74B"/>
<ellipse cx="34" cy="30.0332" rx="1.32222" ry="1.32222" fill="#161C35"/>
</g>
<defs>
<clipPath id="clip0">
<rect width="31.7333" height="31.7333" fill="white" transform="translate(18.1333 18.1333)"/>
</clipPath>
</defs>
</svg>
