<svg width="68" height="68" viewBox="0 0 68 68" fill="none" xmlns="http://www.w3.org/2000/svg">
<circle cx="34" cy="34" r="34" fill="#E2E5F2"/>
<path d="M43.3758 43.2418V39.8933C43.3758 38.9558 43.2418 38.0182 42.7061 37.0806C42.1703 36.143 41.5006 35.3394 40.5631 34.8036C39.6255 34.1339 37.6164 34 36.6788 34L34.5358 36.277L35.3394 38.0182V42.0364L34 43.5097L32.6606 42.0364V38.0182L33.5982 36.277L31.3212 34C30.2497 34 28.2406 34.1339 27.3031 34.8036C26.3655 35.3394 25.8297 36.143 25.294 37.0806C24.7582 38.0182 24.6243 38.8218 24.6243 39.8933V43.2418C24.6243 43.2418 28.1067 44.7151 34 44.7151C39.8934 44.7151 43.3758 43.2418 43.3758 43.2418Z" fill="#132576"/>
<path d="M34 23.4189C31.4551 23.4189 29.9818 25.8299 30.3836 28.5086C30.7854 31.1874 32.1248 33.0626 34 33.0626C35.8751 33.0626 37.2145 31.1874 37.6163 28.5086C38.0181 25.6959 36.5448 23.4189 34 23.4189Z" fill="#132576"/>
</svg>
